<svg height="512pt" viewBox="0 0 512 512" width="512pt" xmlns="http://www.w3.org/2000/svg"><path d="m512 180c0 29.398438-15 53.699219-36.300781 59.097656l-27.898438 6.601563-30.902343-22.199219c3.300781-22.800781 5.101562-17.398438 5.101562-43.5 0-26.398438-1.800781-20.699219-5.398438-43.5l31.796876-22.199219 27.300781 6.597657c21.300781 5.402343 36.300781 29.699218 36.300781 59.101562zm0 0" fill="#ff641a"/><path d="m512 180c0 29.398438-15 53.699219-36.300781 59.097656l-27.898438 6.601563-30.902343-22.199219c3.300781-22.800781 5.101562-17.398438 5.101562-43.5zm0 0" fill="#f03800"/><path d="m452 180c0 23.097656-1.5 45-4.199219 65.699219-3.300781.898437-59.398437 15-62.699219 15.898437l-32.703124-21.898437c6-26.398438 9.601562-25.800781 9.601562-59.699219 0-33.601562-3-33.300781-9-59.402344l31.800781-22.199218s60 15 63.597657 15.902343c2.402343 20.699219 3.601562 42.597657 3.601562 65.699219zm0 0" fill="#deecf1"/><path d="m452 180c0 23.097656-1.5 45-4.199219 65.699219-3.300781.898437-59.398437 15-62.699219 15.898437l-32.703124-21.898437c6-26.398438 9.601562-25.800781 9.601562-59.699219zm0 0" fill="#c5d3dd"/><path d="m392 180c0 29.699219-2.402344 56.699219-6.898438 81.597656-5.101562 1.203125-60.601562 15-63.902343 15.601563l-32.699219-21.601563c8.699219-29.699218 13.5-34.796875 13.5-75.597656s-4.5-45.902344-13.5-75.601562l33-21.597657c3.300781.898438 60 15 63.300781 15.597657 4.5 24.902343 7.199219 51.902343 7.199219 81.601562zm0 0" fill="#ff641a"/><path d="m302 180h90c0 29.699219-2.402344 56.699219-6.898438 81.597656-5.101562 1.203125-60.601562 15-63.902343 15.601563l-32.699219-21.601563c8.699219-29.699218 13.5-34.796875 13.5-75.597656zm0 0" fill="#f03800"/><path d="m332 180c0 36.300781-3.898438 68.699219-10.800781 97.199219 0 .300781-83.699219 21-88.5 22.199219-1.199219.300781-2.398438.300781-3.597657.300781l1.796876-119.699219 1.800781-119.402344s83.699219 21 88.800781 22.203125c6.898438 28.5 10.5 60.898438 10.5 97.199219zm0 0" fill="#deecf1"/><path d="m230.898438 180h101.101562c0 36.300781-3.898438 68.699219-10.800781 97.199219 0 .300781-83.699219 21-88.5 22.199219-1.199219.300781-2.398438.300781-3.597657.300781zm0 0" fill="#c5d3dd"/><path d="m227.015625 300c-1.203125 0-2.433594-.144531-3.648437-.453125l-152-30c-8.042969-2.007813-12.933594-10.152344-10.914063-18.179687 1.992187-8.042969 10.125-12.980469 18.179687-10.914063l152 30c8.042969 2.007813 12.9375 10.152344 10.914063 18.179687-1.699219 6.828126-7.808594 11.367188-14.53125 11.367188zm0 0" fill="#9facba"/><path d="m74.984375 120c-6.722656 0-12.832031-4.539062-14.53125-11.367188-2.019531-8.027343 2.871094-16.171874 10.914063-18.179687l152-30c7.96875-2.09375 16.171874 2.871094 18.179687 10.914063 2.019531 8.027343-2.871094 16.171874-10.914063 18.179687l-152 30c-1.214843.308594-2.445312.453125-3.648437.453125zm0 0" fill="#9facba"/><path d="m90 30v60l-28.199219 30-1.800781-1.800781-30-28.199219v-60c0-16.5 13.5-30 30-30s30 13.5 30 30zm0 0" fill="#537983"/><path d="m90 30v60l-28.199219 30-1.800781-1.800781v-118.199219c16.5 0 30 13.5 30 30zm0 0" fill="#3e5959"/><path d="m90 270v227h-60v-227l30-30zm0 0" fill="#537983"/><path d="m60 240 30 30v227h-30zm0 0" fill="#3e5959"/><path d="m227 60c-43.800781 0-45 107.699219-45 120s1.199219 120 45 120 45-107.699219 45-120-1.199219-120-45-120zm0 0" fill="#ff641a"/><path d="m90 120v120c0 16.570312-13.429688 30-30 30s-30-13.429688-30-30v-120c0-16.570312 13.429688-30 30-30s30 13.429688 30 30zm0 0" fill="#537983"/><path d="m60 270v-180c16.570312 0 30 13.429688 30 30v120c0 16.570312-13.429688 30-30 30zm0 0" fill="#3e5959"/><path d="m30 90h60v30h-60zm0 0" fill="#deecf1"/><path d="m60 90h30v30h-30zm0 0" fill="#c5d3dd"/><path d="m30 240h60v30h-60zm0 0" fill="#deecf1"/><path d="m60 240h30v30h-30zm0 0" fill="#c5d3dd"/><path d="m120 497c0 8.398438-6.597656 15-15 15h-90c-8.402344 0-15-6.601562-15-15 0-8.402344 6.597656-15 15-15h90c8.402344 0 15 6.597656 15 15zm0 0" fill="#64e1dc"/><path d="m120 497c0 8.398438-6.597656 15-15 15h-45v-30h45c8.402344 0 15 6.597656 15 15zm0 0" fill="#00c8c8"/><path d="m182 180h90c0 12.300781-1.199219 120-45 120s-45-107.699219-45-120zm0 0" fill="#f03800"/></svg>